<?xml version="1.0" encoding="UTF-8" standalone="no"?>
<svg
   xmlns:dc="http://purl.org/dc/elements/1.1/"
   xmlns:cc="http://creativecommons.org/ns#"
   xmlns:rdf="http://www.w3.org/1999/02/22-rdf-syntax-ns#"
   xmlns:svg="http://www.w3.org/2000/svg"
   xmlns="http://www.w3.org/2000/svg"
   xmlns:sodipodi="http://sodipodi.sourceforge.net/DTD/sodipodi-0.dtd"
   xmlns:inkscape="http://www.inkscape.org/namespaces/inkscape"
   version="1.0"
   width="739.000000pt"
   height="168.000000pt"
   viewBox="0 0 739.000000 168.000000"
   preserveAspectRatio="xMidYMid meet"
   id="svg2"
   inkscape:version="0.91 r13725"
   sodipodi:docname="geofront.svg">
  <defs>
     <filter id="f4" x="0" y="0" width="200%" height="200%">
      <feOffset result="offOut" in="SourceGraphic" dx="20" dy="20" />
      <feColorMatrix result="matrixOut" in="offOut" type="matrix"
      values="0.2 0 0 0 0 0 0.2 0 0 0 0 0 0.2 0 0 0 0 0 1 0" />
      <feGaussianBlur result="blurOut" in="matrixOut" stdDeviation="10" />
      <feBlend in="SourceGraphic" in2="blurOut" mode="normal" />
    </filter>
  </defs>
  <sodipodi:namedview
     pagecolor="#ffffff"
     bordercolor="#666666"
     borderopacity="1"
     objecttolerance="10"
     gridtolerance="10"
     guidetolerance="10"
     inkscape:pageopacity="0"
     inkscape:pageshadow="2"
     inkscape:window-width="1920"
     inkscape:window-height="1017"
     id="namedview24"
     showgrid="false"
     inkscape:zoom="1.2470907"
     inkscape:cx="538.18777"
     inkscape:cy="295.46215"
     inkscape:window-x="1432"
     inkscape:window-y="-8"
     inkscape:window-maximized="1"
     inkscape:current-layer="g6" />
  <metadata
     id="metadata4">
Created by potrace 1.13, written by Peter Selinger 2001-2015
<rdf:RDF>
  <cc:Work
     rdf:about="">
    <dc:format>image/svg+xml</dc:format>
    <dc:type
       rdf:resource="http://purl.org/dc/dcmitype/StillImage" />
  </cc:Work>
</rdf:RDF>
</metadata>
  <g
     transform="translate(0.000000,168.000000) scale(0.100000,-0.100000)"
     fill="#e9771a" filter="url(#f4)"
     stroke="none"
     opacity="1.0"
     id="g6">
    <path
       d="m 3589,1571 c -117,-34 -220,-172 -259,-348 l -12,-53 -64,0 -64,0 0,-125 0,-125 65,0 65,0 0,-276 c 0,-288 6,-345 44,-399 47,-68 138,-125 197,-125 l 29,0 0,361 -0.7726,438.36397 L 3720,920 l 0,125 0,125 -55,0 c -52,0 -55,1 -55,25 0,67 57,120 164,154 37,12 79,29 93,38 32,21 83,123 83,168 l 0,35 -152,-1 c -109,-1 -169,-6 -209,-18 z"
       id="path8"
       inkscape:connector-curvature="0"
       sodipodi:nodetypes="cccccccccscsccccccssccsccc" />
    <path
       d="m 6920,1375 0,-205 -65,0 -65,0 0,-125 0,-125 65,0 65,0 0,-276 c 0,-288 6,-345 44,-399 42,-61 138,-125 187,-125 l 29,0 0,361 -0.6589,435.59797 129.5249,2.26802 L 7310,1045 l 0,125 -64,0 -64,0 -4,129 c -3,126 -4,131 -33,173 -36,50 -138,108 -191,108 l -34,0 z"
       id="path10"
       inkscape:connector-curvature="0"
       sodipodi:nodetypes="ccccccccscsccccccccccscc" />
    <path
       d="M405 1155 c-159 -32 -305 -162 -347 -310 -12 -42 -17 -98 -18 -182 l0 -123 129 0 129 0 4 113 c3 106 5 117 33 163 23 37 44 56 84 77 50 25 64 27 168 27 l113 0 0 -242 c0 -285 -6 -310 -82 -349 -39 -21 -62 -24 -248 -30 -205 -6 -206 -6 -246 -35 -55 -39 -94 -96 -94 -139 l0 -35 256 0 c200 0 269 3 317 16 135 35 247 115 294 212 l28 57 3 398 3 397 -233 -1 c-138 -1 -257 -6 -293 -14z"
       id="path12" />
    <path
       d="M1120 943 c0 -124 5 -256 11 -292 21 -131 100 -242 219 -308 l65 -37 283 -4 282 -4 0 32 c0 17 -9 48 -19 68 -21 41 -112 132 -133 133 -301 16 -303 16 -348 38 -125 62 -176 293 -75 339 17 8 83 12 185 12 l160 0 0 -110 0 -110 115 0 115 0 0 235 0 235 -430 0 -430 0 0 -227z"
       id="path14" />
    <path
       d="M2460 1151 c-103 -31 -186 -104 -265 -235 -47 -79 -55 -132 -55 -387 l0 -229 278 0 c298 0 332 4 432 55 58 30 154 130 182 192 21 45 22 65 26 336 l4 287 -274 -1 c-221 -1 -283 -4 -328 -18z m330 -323 c0 -129 -10 -157 -76 -217 -65 -60 -100 -71 -216 -71 l-88 0 0 73 c0 93 21 154 72 212 64 73 113 93 231 94 l77 1 0 -92z"
       id="path16" />
    <path
       d="M4295 1156 c-132 -21 -263 -111 -307 -211 -53 -119 -58 -155 -58 -409 l0 -236 120 0 120 0 0 188 c0 185 0 188 29 247 48 103 167 185 269 185 102 0 178 56 206 150 9 29 16 64 16 77 l0 23 -162 -1 c-90 -1 -194 -7 -233 -13z"
       id="path18" />
    <path
       d="M5060 1151 c-103 -31 -186 -104 -265 -235 -47 -79 -55 -132 -55 -387 l0 -229 278 0 c298 0 332 4 432 55 58 30 154 130 182 192 21 45 22 65 26 336 l4 287 -274 -1 c-221 -1 -283 -4 -328 -18z m330 -323 c0 -129 -10 -157 -76 -217 -65 -60 -100 -71 -216 -71 l-88 0 0 73 c0 93 21 154 72 212 64 73 113 93 231 94 l77 1 0 -92z"
       id="path20" />
    <path
       d="M5790 735 l0 -435 130 0 130 0 0 270 c0 295 3 315 56 338 35 16 136 6 186 -19 50 -25 102 -72 130 -117 22 -35 23 -50 29 -267 6 -218 7 -232 30 -270 13 -22 30 -45 39 -52 34 -27 123 -63 156 -63 l35 0 -3 357 -3 358 -29 60 c-37 74 -132 175 -205 217 -81 47 -160 57 -438 57 l-243 1 0 -435z"
       id="path22" />
  </g>
</svg>
